<svg width="60" height="60" viewBox="0 0 60 60" fill="none" xmlns="http://www.w3.org/2000/svg">
<g clip-path="url(#clip0_260_4)">
<rect width="60" height="60" rx="30" fill="white"/>
<path d="M53.2221 60.703C53.0602 60.9834 52.8274 61.2162 52.5471 61.378C52.2667 61.5398 51.9487 61.625 51.6249 61.6249H7.37494C7.05146 61.6246 6.73375 61.5392 6.45373 61.3772C6.17371 61.2152 5.94122 60.9825 5.77962 60.7022C5.61803 60.422 5.533 60.1042 5.53308 59.7807C5.53316 59.4572 5.61835 59.1394 5.7801 58.8593C9.29014 52.7911 14.6992 48.4398 21.0118 46.3771C17.8893 44.5183 15.4633 41.6859 14.1064 38.3148C12.7495 34.9438 12.5367 31.2206 13.5007 27.7169C14.4646 24.2132 16.552 21.1228 19.4423 18.9203C22.3327 16.7178 25.8661 15.5249 29.4999 15.5249C33.1338 15.5249 36.6672 16.7178 39.5575 18.9203C42.4479 21.1228 44.5353 24.2132 45.4992 27.7169C46.4632 31.2206 46.2503 34.9438 44.8934 38.3148C43.5365 41.6859 41.1106 44.5183 37.9881 46.3771C44.3006 48.4398 49.7097 52.7911 53.2198 58.8593C53.382 59.1394 53.4675 59.4572 53.468 59.7809C53.4684 60.1045 53.3836 60.4226 53.2221 60.703Z" fill="#848484"/>
</g>
<rect x="0.5" y="0.5" width="59" height="59" rx="29.5" stroke="#F18C20"/>
<defs>
<clipPath id="clip0_260_4">
<rect width="60" height="60" rx="30" fill="white"/>
</clipPath>
</defs>
</svg>
