<svg width="11" height="9" viewBox="0 0 11 9" fill="none" xmlns="http://www.w3.org/2000/svg">
<path d="M11 2.73989C11.0002 2.52541 10.9531 2.31389 10.8627 2.12236C10.7722 1.93084 10.6409 1.76466 10.4792 1.63722C10.3175 1.50979 10.1301 1.42466 9.93192 1.38869C9.73377 1.35272 9.53048 1.36692 9.33841 1.43015C9.14635 1.49337 8.97089 1.60385 8.82617 1.75269C8.68145 1.90153 8.57152 2.08455 8.50522 2.28703C8.43893 2.48951 8.41813 2.70577 8.44451 2.91839C8.47088 3.13102 8.54369 3.33406 8.65707 3.51116L7.42923 5.12509L6.32514 2.41711C6.52651 2.23626 6.67089 1.99371 6.73873 1.72235C6.80657 1.45098 6.79457 1.16392 6.70437 0.900078C6.61417 0.636234 6.45012 0.408366 6.23447 0.24736C6.01882 0.0863553 5.76199 0 5.49879 0C5.2356 0 4.97877 0.0863553 4.76312 0.24736C4.54746 0.408366 4.38342 0.636234 4.29322 0.900078C4.20302 1.16392 4.19102 1.45098 4.25886 1.72235C4.32669 1.99371 4.47108 2.23626 4.67244 2.41711L3.5711 5.12362L2.34326 3.50969C2.50099 3.26307 2.57886 2.96821 2.56502 2.67C2.55117 2.37179 2.44638 2.08658 2.26658 1.8578C2.08679 1.62903 1.84185 1.46923 1.56907 1.40274C1.2963 1.33625 1.01063 1.36671 0.75558 1.48949C0.500531 1.61227 0.290075 1.82064 0.156264 2.08286C0.0224538 2.34508 -0.0273778 2.64678 0.0143586 2.94201C0.056095 3.23725 0.187112 3.50984 0.387457 3.71827C0.587801 3.9267 0.846493 4.05954 1.12413 4.09658L1.78778 8.34611C1.81631 8.52881 1.90465 8.69479 2.03708 8.81452C2.1695 8.93425 2.33744 8.99997 2.51101 9H8.48933C8.6629 8.99997 8.83083 8.93425 8.96326 8.81452C9.09569 8.69479 9.18402 8.52881 9.21255 8.34611L9.87574 4.09853C10.1861 4.05717 10.4716 3.89628 10.6787 3.64609C10.8857 3.39591 11 3.07365 11 2.73989ZM5.50017 0.783609C5.60894 0.783609 5.71528 0.818029 5.80572 0.882517C5.89617 0.947005 5.96666 1.03866 6.00829 1.1459C6.04991 1.25314 6.0608 1.37115 6.03958 1.48499C6.01836 1.59883 5.96598 1.70341 5.88906 1.78548C5.81215 1.86756 5.71415 1.92346 5.60746 1.9461C5.50078 1.96875 5.39019 1.95713 5.2897 1.91271C5.1892 1.86829 5.10331 1.79306 5.04287 1.69655C4.98244 1.60004 4.95018 1.48657 4.95018 1.37049C4.95018 1.21484 5.00813 1.06557 5.11127 0.955503C5.21441 0.845441 5.3543 0.783609 5.50017 0.783609ZM0.733646 2.73989C0.733646 2.62382 0.765902 2.51035 0.826335 2.41384C0.886768 2.31732 0.972664 2.2421 1.07316 2.19768C1.17366 2.15326 1.28424 2.14164 1.39093 2.16428C1.49761 2.18693 1.59561 2.24282 1.67253 2.3249C1.74944 2.40698 1.80182 2.51155 1.82305 2.6254C1.84427 2.73924 1.83337 2.85724 1.79175 2.96448C1.75012 3.07172 1.67963 3.16338 1.58918 3.22787C1.49874 3.29236 1.39241 3.32678 1.28363 3.32678C1.13777 3.32678 0.997875 3.26495 0.894733 3.15488C0.791591 3.04482 0.733646 2.89554 0.733646 2.73989ZM9.71671 3.32678C9.60793 3.32678 9.5016 3.29236 9.41115 3.22787C9.32071 3.16338 9.25021 3.07172 9.20859 2.96448C9.16696 2.85724 9.15607 2.73924 9.17729 2.6254C9.19851 2.51155 9.25089 2.40698 9.32781 2.3249C9.40473 2.24282 9.50272 2.18693 9.60941 2.16428C9.7161 2.14164 9.82668 2.15326 9.92717 2.19768C10.0277 2.2421 10.1136 2.31732 10.174 2.41384C10.2344 2.51035 10.2667 2.62382 10.2667 2.73989C10.2667 2.89554 10.2087 3.04482 10.1056 3.15488C10.0025 3.26495 9.86257 3.32678 9.71671 3.32678Z" fill="#848484"/>
</svg>
