<svg width="13" height="13" viewBox="0 0 13 13" fill="none" xmlns="http://www.w3.org/2000/svg">
<path d="M6.51625 13C5.06458 11.4544 3.90823 10.2065 3.0472 9.25628C2.18617 8.30603 1.53075 7.51607 1.08095 6.88639C0.63115 6.25671 0.33865 5.71863 0.20345 5.27213C0.06825 4.82563 0.000433333 4.32761 0 3.77807C0 2.72479 0.346667 1.83179 1.04 1.09908C1.73333 0.366358 2.57833 0 3.575 0C4.0625 0 4.53375 0.0943373 4.98875 0.283012C5.44375 0.471686 5.85 0.743708 6.2075 1.09908L5.2 4.80845H7.15L6.5975 10.5614L8.45 4.12153H6.5L7.65375 0.480845C7.92458 0.320564 8.20907 0.200352 8.5072 0.120211C8.80533 0.0400704 9.11127 0 9.425 0C10.4217 0 11.2667 0.366358 11.96 1.09908C12.6533 1.83179 13 2.72479 13 3.77807C13 4.32761 12.9296 4.83135 12.7887 5.2893C12.6479 5.74725 12.35 6.29404 11.895 6.92967C11.44 7.5653 10.7846 8.35526 9.92875 9.29955C9.07292 10.2438 7.93542 11.4773 6.51625 13Z" fill="#9A9A9A"/>
</svg>
