<svg width="12" height="20" viewBox="0 0 12 20" fill="none" xmlns="http://www.w3.org/2000/svg">
<path d="M2.25 20C1.0074 20 0 18.9926 0 17.75L0 2.25C0 1.0074 1.0074 0 2.25 0H9.75C10.9926 0 12 1.0074 12 2.25L12 17.75C12 18.9926 10.9926 20 9.75 20H2.25ZM2.25 18.5H9.75C10.1642 18.5 10.5 18.1642 10.5 17.75L10.5 2.25C10.5 1.8358 10.1642 1.5 9.75 1.5H2.25C1.8358 1.5 1.5 1.8358 1.5 2.25L1.5 17.75C1.5 18.1642 1.8358 18.5 2.25 18.5ZM6 14.9691C5.6203 14.9691 5.3065 14.6869 5.2568 14.3209L5.25 14.2191L5.2507 7.5081L4.2887 8.4692C4.0224 8.7355 3.6057 8.7597 3.3121 8.5418L3.228 8.4692C2.9617 8.2029 2.9375 7.7863 3.1554 7.4927L3.228 7.4085L5.4697 5.1669L5.5079 5.1312L5.5704 5.0823L5.6369 5.0408L5.6974 5.0107L5.7981 4.9747L5.8607 4.9602L5.9532 4.9486H6.0468L6.1385 4.96L6.2349 4.9847L6.3465 5.0318L6.4233 5.078L6.5303 5.1669L8.772 7.4085C9.06489 7.7014 9.06489 8.1763 8.772 8.4692C8.50573 8.7355 8.08907 8.7597 7.7955 8.5418L7.7113 8.4692L6.7507 7.5081L6.75 14.2191C6.75 14.5643 6.5168 14.855 6.1994 14.9423L6.1018 14.9622L6 14.9691Z" fill="#B6B6B6"/>
</svg>
